<?xml version="1.0" standalone="no"?>
<!DOCTYPE svg PUBLIC "-//W3C//DTD SVG 20010904//EN"
 "http://www.w3.org/TR/2001/REC-SVG-20010904/DTD/svg10.dtd">
<svg version="1.0" xmlns="http://www.w3.org/2000/svg"
 width="1024.000000pt" height="1024.000000pt" viewBox="0 0 1024.000000 1024.000000"
 preserveAspectRatio="xMidYMid meet">
<metadata>
Created by potrace 1.14, written by Peter Selinger 2001-2017
</metadata>
<g transform="translate(0.000000,1024.000000) scale(0.100000,-0.100000)"
fill="#000000" stroke="none">
<path d="M4230 9156 c-25 -6 -57 -19 -70 -29 -39 -27 -79 -95 -85 -145 -6 -53
-51 -246 -65 -279 -5 -13 -22 -24 -42 -28 -18 -4 -39 -11 -48 -15 -8 -5 -87
-33 -175 -64 -88 -31 -173 -63 -190 -70 -16 -8 -48 -22 -70 -31 -200 -87 -424
-212 -599 -333 -44 -31 -53 -33 -95 -27 -25 4 -91 8 -146 9 -88 2 -110 -1
-184 -26 -107 -37 -179 -84 -262 -169 -62 -63 -97 -121 -160 -264 -9 -20 -13
-79 -14 -183 l-1 -152 -41 -53 c-23 -28 -69 -86 -103 -127 -75 -92 -249 -352
-321 -478 -29 -51 -56 -95 -61 -98 -4 -3 -27 10 -51 29 -23 19 -69 47 -102 63
-56 27 -68 29 -185 29 l-125 0 -73 -39 c-88 -47 -155 -118 -203 -212 -33 -67
-34 -72 -34 -189 0 -114 2 -123 31 -185 17 -36 51 -87 75 -114 l43 -48 -45
-42 c-54 -50 -106 -128 -120 -181 -18 -63 -6 -172 24 -231 55 -107 143 -160
332 -197 183 -36 185 -36 185 -92 0 -48 -4 -51 -70 -46 -42 3 -147 -25 -179
-48 -16 -12 -34 -21 -39 -21 -23 0 -107 -99 -136 -160 -28 -58 -31 -75 -31
-155 0 -79 3 -97 29 -150 68 -138 204 -225 352 -225 84 0 205 55 279 127 21
21 33 29 25 18 -14 -18 -14 -19 2 -7 10 8 17 17 16 20 -4 20 54 121 72 126 58
17 65 18 50 6 -13 -10 -12 -11 3 -6 10 3 28 6 40 7 20 1 20 2 -3 9 -21 7 -22
8 -5 9 11 1 31 4 45 6 22 5 22 4 5 -4 -19 -9 -19 -10 3 -10 13 -1 21 -5 17
-10 -3 -5 -1 -12 5 -16 11 -7 14 -207 4 -218 -9 -9 -4 -316 6 -362 5 -22 11
-58 14 -80 14 -92 97 -291 157 -377 27 -37 24 -44 -23 -75 -24 -15 -52 -37
-64 -48 -133 -127 -188 -184 -216 -221 -18 -24 -35 -43 -38 -44 -10 0 -79 126
-149 268 -93 193 -145 352 -206 637 -14 64 -24 86 -50 112 -35 35 -54 39 -104
22 -70 -25 -74 -81 -21 -311 67 -294 192 -591 351 -838 45 -70 47 -77 34 -97
-8 -12 -15 -27 -15 -33 0 -6 -8 -30 -19 -53 -41 -91 -49 -235 -19 -352 15 -61
75 -183 123 -250 131 -182 350 -321 600 -380 39 -10 133 -19 215 -22 154 -6
204 2 381 58 l65 21 115 -74 c204 -133 293 -182 514 -283 278 -128 707 -250
1020 -289 72 -9 155 -22 185 -27 88 -17 723 -24 875 -10 246 23 541 74 725
126 52 15 118 33 145 40 107 29 346 118 468 174 219 101 459 232 487 266 7 8
16 15 21 15 5 0 28 14 52 31 l44 31 69 -21 c144 -43 224 -54 394 -55 142 0
178 3 255 23 224 59 434 200 550 370 71 104 90 166 90 296 0 104 -2 114 -33
179 -18 38 -48 91 -68 119 -31 44 -34 51 -21 65 32 36 152 241 212 361 168
339 287 752 323 1128 11 108 7 140 -21 171 -37 40 -129 24 -154 -29 -10 -20
-47 -212 -70 -364 -21 -135 -102 -438 -142 -530 -4 -11 -19 -47 -31 -80 -78
-202 -253 -510 -386 -681 -133 -170 -136 -174 -152 -161 -13 10 -14 9 -7 -2
10 -17 4 -14 -77 41 -47 32 -307 158 -324 158 -4 0 -20 7 -37 15 -44 19 -213
62 -308 77 -44 7 -79 15 -79 18 0 3 45 27 100 53 336 163 573 457 666 829 20
82 27 137 31 265 l6 163 101 31 c158 49 318 136 384 209 53 57 84 111 78 134
-8 33 -92 133 -117 139 -12 3 -26 -1 -34 -11 -8 -9 -26 -32 -41 -50 -15 -19
-51 -52 -81 -73 -54 -41 -183 -104 -183 -91 0 4 -4 2 -8 -3 -9 -13 -79 -35
-86 -27 -3 3 -6 149 -6 324 0 248 3 318 13 318 27 -1 155 -39 200 -60 60 -28
137 -97 174 -155 32 -52 53 -62 93 -45 40 16 87 -8 151 -77 54 -60 82 -109 94
-160 7 -36 20 -40 88 -24 26 6 50 23 78 55 22 25 47 46 54 46 24 0 34 -34 28
-92 -5 -51 -4 -56 22 -76 40 -32 87 -29 129 9 80 69 72 219 -14 298 l-32 28
39 24 c72 44 104 74 147 139 63 95 79 152 74 265 -3 82 -8 101 -41 168 -78
157 -239 255 -408 246 l-51 -3 -29 70 c-16 38 -36 82 -43 99 -14 27 -13 33 6
65 12 19 27 42 34 50 21 24 51 103 64 164 36 172 -71 375 -242 461 -68 34 -74
35 -184 35 l-113 0 -56 84 -56 84 23 73 c19 60 23 96 23 189 -1 140 -14 197
-72 320 -40 82 -58 107 -143 192 -81 81 -112 105 -181 138 -46 22 -92 40 -104
40 -12 0 -26 5 -32 11 -27 27 -294 28 -337 1 -22 -13 -74 -12 -86 3 -7 8 -17
15 -23 15 -6 0 -31 17 -56 38 -45 38 -70 55 -284 198 -94 63 -348 197 -502
265 -109 48 -235 97 -267 104 -18 4 -37 11 -43 15 -5 4 -46 17 -90 30 -44 12
-89 26 -100 30 -11 5 -33 11 -50 15 -16 3 -46 10 -65 15 -19 5 -69 16 -110 25
-41 9 -89 20 -106 26 -64 19 -473 63 -499 53 -18 -7 -17 -8 -15 112 1 75 -2
99 -19 131 -27 54 -85 97 -132 97 -21 1 -41 4 -45 9 -13 13 -824 7 -874 -7z
m857 -214 c7 -5 23 -89 38 -207 14 -110 28 -217 32 -237 l6 -38 -429 0 c-236
-1 -462 -3 -501 -6 -40 -3 -73 -2 -73 3 -1 4 25 115 57 245 41 166 62 238 73
241 27 8 785 7 797 -1z m493 -357 c275 -34 575 -111 848 -217 l103 -40 -43
-27 c-57 -36 -115 -102 -141 -160 -63 -137 17 -341 134 -341 89 0 119 87 54
159 -64 70 -41 153 57 209 54 31 138 51 138 33 0 -5 15 -9 33 -9 44 0 170 -64
316 -161 109 -72 223 -152 245 -172 5 -5 -19 -38 -57 -78 -182 -193 -244 -441
-171 -691 88 -302 402 -536 694 -516 151 10 308 64 402 137 l36 29 35 -42 35
-42 -18 -36 c-31 -61 -43 -137 -38 -232 5 -72 11 -100 36 -151 59 -118 146
-196 265 -236 49 -17 54 -22 100 -102 27 -46 65 -106 84 -133 l35 -48 -33 -77
c-27 -64 -33 -89 -33 -158 -1 -63 -4 -83 -15 -83 -7 0 -55 17 -105 39 -122 51
-153 61 -276 86 l-105 21 -7 105 c-7 117 -27 197 -70 283 -76 152 -205 262
-353 301 -70 18 -192 20 -267 4 -116 -25 -238 -112 -308 -221 l-37 -57 -6 242
c-6 277 -22 375 -87 559 -143 400 -413 738 -795 993 -209 140 -463 246 -712
297 l-111 22 -6 60 c-3 32 -6 106 -6 163 0 102 -1 105 -29 134 -25 24 -68 38
-84 27 -2 -2 -11 3 -20 11 -12 10 -17 30 -17 72 l0 59 88 0 c48 0 144 -7 212
-15z m-1668 -426 l-3 -281 -51 -61 c-143 -178 -299 -450 -376 -662 -93 -256
-122 -442 -122 -785 l0 -186 -69 -70 c-47 -49 -79 -93 -104 -145 -57 -117 -67
-176 -74 -436 -3 -128 -7 -233 -9 -233 -1 0 -35 18 -76 39 -40 21 -110 52
-154 67 l-82 28 -4 196 c-4 178 -7 201 -31 269 -43 121 -148 255 -234 299 -91
47 -251 65 -365 41 -168 -35 -318 -175 -386 -360 l-27 -74 -5 -393 -5 -394
-38 -13 c-20 -7 -39 -10 -41 -6 -2 3 -12 42 -21 86 -22 99 -55 162 -120 229
-86 87 -187 130 -404 171 -140 27 -201 72 -201 151 0 86 92 153 246 178 175
28 290 95 370 215 49 75 84 189 84 279 0 48 9 71 72 194 106 207 288 479 411
613 l46 50 68 -67 c86 -84 148 -122 245 -153 225 -71 453 -17 621 148 80 78
123 145 158 247 18 53 22 87 23 185 0 104 -4 130 -26 193 -35 97 -81 171 -147
238 -52 52 -53 55 -35 69 66 53 366 213 524 281 68 29 331 132 340 133 3 1 4
-125 2 -280z m1126 84 l203 -6 -5 -71 c-5 -85 -6 -88 -16 -56 -8 24 -8 24 -9
3 l-1 -22 -550 -1 -550 0 0 80 0 80 363 0 c199 0 453 -3 565 -7z m-2293 -319
c118 -30 203 -103 263 -224 36 -71 37 -78 37 -180 -1 -95 -4 -111 -30 -163
-57 -117 -148 -185 -297 -223 -75 -20 -135 -13 -226 24 -68 28 -172 117 -172
147 0 8 -4 15 -10 15 -5 0 -19 21 -32 48 -29 62 -37 208 -15 272 22 65 39 100
49 100 4 0 8 6 8 14 0 27 97 116 156 143 98 45 173 53 269 27z m2750 -82 c214
-50 483 -163 642 -269 140 -93 345 -277 438 -393 163 -203 287 -467 335 -716
18 -97 20 -144 20 -607 0 -284 -4 -496 -9 -488 -5 8 -11 9 -15 3 -6 -10 -77
-46 -158 -81 l-48 -20 0 95 0 96 -37 -7 c-21 -4 -42 -7 -48 -8 -5 -1 -12 -5
-15 -8 -3 -3 -17 -9 -32 -13 l-28 -6 -1 187 c0 157 -3 200 -20 258 -11 39 -21
78 -22 87 -1 9 -5 14 -9 12 -4 -3 -8 -2 -9 3 0 4 -3 19 -6 33 -7 39 -3 199 7
260 19 112 8 229 -28 310 -8 19 -15 41 -15 48 0 6 -4 12 -9 12 -5 0 -6 10 -3
23 4 16 4 18 -3 8 -8 -11 -12 -9 -22 9 -6 12 -9 24 -7 27 3 3 -10 20 -29 39
-22 21 -33 39 -28 46 4 7 3 10 -1 5 -5 -4 -21 5 -37 20 -28 27 -39 51 -16 37
7 -4 8 -3 4 5 -4 6 -12 9 -17 5 -12 -7 -56 36 -51 49 1 5 -2 6 -8 2 -6 -4 -18
-1 -26 6 -12 10 -12 14 -2 21 10 7 10 8 -2 7 -23 -3 -51 12 -43 24 3 6 1 7 -5
3 -7 -4 -29 5 -49 19 -21 14 -42 25 -48 25 -6 0 -16 5 -22 11 -23 23 -131 59
-208 69 -197 26 -352 -46 -423 -198 -38 -81 -44 -230 -12 -335 33 -108 91
-199 188 -294 46 -46 88 -83 92 -83 4 0 17 -9 29 -19 l23 -20 -34 -33 c-18
-18 -51 -59 -72 -90 l-39 -58 -35 51 c-126 188 -349 277 -557 224 -84 -22
-162 -62 -214 -109 -47 -44 -123 -140 -134 -168 -9 -26 -19 -22 -47 19 -36 52
-97 109 -147 137 -115 65 -276 76 -395 29 -34 -13 -39 -13 -53 1 -59 58 -210
109 -327 110 l-58 1 0 120 c0 259 31 482 91 665 39 120 202 439 257 503 8 9
20 26 26 36 38 65 75 109 184 219 l73 73 592 -4 c559 -3 597 -5 682 -25z
m2425 -71 c63 -24 176 -105 212 -153 79 -105 124 -253 114 -375 -19 -238 -197
-422 -434 -448 -163 -19 -352 74 -455 223 -15 20 -38 69 -51 108 -101 287 54
586 340 659 77 19 202 13 274 -14z m-2064 -982 c233 -116 417 -366 333 -450
-86 -86 -474 147 -560 336 -32 69 -18 127 36 152 44 19 98 9 191 -38z m2855
-141 c50 -14 114 -69 139 -117 29 -58 34 -103 16 -163 -30 -103 -100 -168
-190 -176 -98 -8 -179 36 -221 119 -67 131 -25 267 99 325 57 26 99 30 157 12z
m-7441 -148 c54 -28 98 -78 121 -139 78 -207 -137 -404 -333 -306 -175 88
-181 331 -11 436 68 42 151 46 223 9z m1122 -497 c58 -26 115 -83 139 -141 19
-43 20 -79 24 -816 2 -430 8 -787 13 -807 27 -105 107 -207 200 -257 196 -104
440 -33 537 157 54 108 55 115 53 917 l-2 739 28 60 c33 74 66 109 131 143 42
22 63 26 130 26 67 0 88 -4 130 -26 56 -29 113 -85 143 -139 43 -77 44 -103
40 -1009 -4 -968 0 -902 -79 -1067 -148 -310 -441 -492 -819 -510 -207 -9
-350 15 -506 87 -233 107 -435 320 -525 555 -58 149 -58 156 -59 1041 0 886
-2 859 59 947 78 114 233 157 363 100z m2816 -5 c54 -27 106 -78 131 -126 10
-20 51 -147 91 -282 137 -468 264 -868 280 -884 7 -7 10 13 10 54 0 36 0 265
0 510 0 263 4 467 10 499 29 153 140 252 284 253 111 1 200 -55 254 -157 l27
-50 3 -840 c2 -562 -1 -865 -8 -915 -27 -188 -93 -358 -185 -472 -51 -63 -145
-131 -208 -150 -68 -21 -213 -15 -272 11 -112 50 -175 129 -230 288 -36 102
-183 589 -206 681 l-13 52 -62 0 -63 0 -16 -57 c-91 -326 -223 -749 -248 -796
-57 -109 -134 -167 -254 -192 -165 -35 -314 41 -407 207 l-37 67 26 51 c15 29
36 86 48 128 21 76 22 89 25 985 3 890 2 910 -18 984 -11 41 -30 93 -41 115
l-21 41 48 -7 c143 -19 252 -132 274 -282 5 -38 10 -282 10 -544 0 -260 4
-470 8 -465 5 6 16 30 25 55 21 57 208 658 277 890 29 96 63 196 76 221 68
136 246 195 382 127z m2563 -4 c63 -35 120 -98 155 -172 38 -81 43 -179 44
-892 0 -638 -6 -772 -41 -905 -81 -311 -300 -558 -605 -684 -106 -43 -204 -62
-349 -68 -237 -10 -440 31 -586 117 -89 53 -96 62 -71 97 80 114 174 351 193
492 18 131 12 124 66 74 211 -195 563 -146 692 96 68 129 64 78 70 921 6 765
6 765 28 806 30 56 106 121 162 139 71 23 178 13 242 -21z m1434 -309 c109
-52 160 -174 124 -296 -27 -90 -115 -150 -220 -150 -53 -1 -67 4 -112 34 -62
41 -117 136 -117 201 0 173 171 284 325 211z m-2275 -645 c0 -172 -2 -210 -14
-210 -22 0 -66 -26 -58 -35 4 -5 1 -5 -5 -1 -7 4 -45 -7 -85 -23 -39 -17 -74
-29 -76 -27 -6 7 -4 304 2 324 3 9 40 35 82 57 42 22 82 45 88 50 7 6 21 15
31 21 11 6 21 21 23 33 9 56 12 3 12 -189z m-4037 100 c90 -47 194 -144 185
-172 -2 -6 6 -21 19 -34 17 -17 23 -34 22 -66 -1 -78 -6 -81 -74 -42 -33 18
-55 34 -50 34 6 1 -8 7 -30 15 -22 8 -50 27 -62 42 -13 15 -23 22 -23 15 0 -7
-5 -10 -10 -7 -6 4 -8 11 -5 16 6 9 5 10 -31 14 -41 4 -44 13 -44 117 l0 101
32 -7 c18 -4 50 -15 71 -26z m-1599 -233 c44 -34 76 -94 76 -141 0 -53 -36
-117 -88 -156 -41 -31 -52 -35 -106 -35 -71 1 -104 18 -147 79 -24 33 -29 49
-29 100 0 51 5 68 30 106 41 63 80 81 161 77 54 -2 73 -7 103 -30z m1652 -283
c31 -28 33 -34 27 -81 -5 -55 13 -105 46 -122 44 -24 53 -196 10 -209 -8 -3
-16 -8 -19 -12 -3 -4 -32 -10 -66 -14 -53 -6 -64 -4 -89 15 -57 45 -65 82 -65
311 l0 207 62 -32 c33 -18 76 -46 94 -63z m3859 -243 c3 -5 1 -12 -5 -16 -5
-3 -10 -11 -10 -17 0 -6 9 -3 21 8 23 21 129 29 126 10 -1 -6 3 -10 8 -9 6 1
12 -22 13 -52 3 -48 0 -55 -25 -75 -23 -18 -24 -21 -8 -18 23 4 28 -23 5 -29
-13 -4 -13 -3 0 6 13 9 13 11 -2 11 -9 0 -20 -4 -23 -10 -3 -5 -11 -10 -17
-10 -7 0 -6 6 2 15 11 13 8 14 -18 9 -22 -5 -39 0 -61 15 -21 15 -32 18 -37
10 -4 -7 -3 -9 4 -5 6 3 13 2 16 -3 12 -19 -23 -18 -41 1 -10 12 -12 18 -5 14
18 -10 15 4 -9 43 -15 26 -17 32 -5 28 10 -4 13 -1 9 9 -3 7 0 14 6 14 6 0 11
9 11 20 0 14 7 20 23 20 18 0 19 2 7 10 -9 6 -10 10 -3 10 6 0 14 -4 18 -9z
m172 -123 c-3 -7 -5 -2 -5 12 0 14 2 19 5 13 2 -7 2 -19 0 -25z m-1779 -807
c24 -24 68 -40 56 -20 -2 4 -10 6 -18 3 -7 -3 -18 7 -24 21 -17 37 -15 41 8
14 17 -21 19 -21 13 -4 -3 11 10 0 30 -25 36 -44 47 -68 27 -55 -5 3 -10 1
-10 -5 0 -7 8 -9 20 -5 19 6 29 -8 13 -18 -5 -2 -2 -2 6 0 17 4 63 -36 55 -48
-3 -5 3 -9 12 -9 13 0 15 -3 8 -10 -13 -13 -45 -2 -43 14 3 28 -3 36 -27 36
-14 0 -23 -4 -19 -10 3 -5 14 -10 24 -10 19 0 22 -24 6 -49 -5 -9 -4 -12 3 -7
5 3 13 0 15 -6 4 -9 8 -10 14 -2 16 22 51 35 59 22 5 -7 3 -8 -6 -3 -8 5 -11
4 -6 -3 4 -6 12 -9 19 -6 7 2 22 -5 34 -16 12 -11 30 -20 40 -20 14 0 15 -2 4
-9 -21 -13 5 -24 40 -16 l31 7 -23 -23 -23 -23 23 -10 c17 -7 21 -16 19 -39
-2 -20 2 -32 12 -34 13 -4 13 -3 0 6 -12 9 -9 11 15 13 46 3 57 2 100 -5 35
-6 37 -5 15 5 -23 10 -23 11 -6 16 11 2 25 -3 31 -12 7 -9 18 -16 25 -16 8 0
10 -8 6 -25 -6 -25 -5 -25 51 -25 62 0 222 40 287 71 49 23 49 23 41 -1 -4
-14 -1 -22 12 -27 10 -4 23 -13 29 -21 6 -8 16 -12 22 -8 7 4 12 3 12 -3 0 -5
-6 -12 -12 -14 -8 -4 -7 -6 4 -6 9 -1 18 3 20 7 5 14 61 25 56 12 -2 -6 -8
-12 -13 -12 -13 0 -35 -18 -35 -29 0 -5 10 -10 23 -10 16 -1 18 -2 5 -6 -10
-2 -18 -9 -18 -15 0 -6 -7 -16 -16 -23 -13 -9 -14 -16 -5 -33 18 -34 14 -54
-11 -50 -17 2 -22 -1 -20 -14 4 -23 -7 -22 -37 1 -21 16 -21 19 -6 24 9 4 21
5 26 1 5 -3 9 2 9 10 0 24 -15 26 -33 5 -16 -18 -19 -18 -33 -4 -20 20 -24 19
-24 -5 0 -12 7 -20 16 -20 8 0 23 -7 31 -16 14 -13 14 -17 2 -24 -7 -5 -16 -6
-19 -2 -3 4 -12 8 -21 10 -18 3 -56 -35 -45 -45 4 -5 12 0 17 10 6 9 17 17 24
17 21 0 19 -9 -7 -30 -22 -17 -24 -17 -42 -2 -14 13 -20 14 -23 5 -3 -8 -14
-11 -29 -7 -19 5 -31 0 -50 -21 -20 -22 -27 -25 -39 -15 -12 10 -15 10 -15 -2
0 -8 5 -19 12 -26 9 -9 9 -12 0 -12 -7 0 -12 4 -12 8 0 13 -43 7 -48 -6 -2 -7
-8 -12 -13 -12 -4 0 -6 7 -3 15 4 9 0 15 -9 15 -9 0 -19 -9 -22 -20 -7 -21
-25 -28 -25 -9 0 6 -9 9 -20 6 -11 -3 -18 -1 -14 4 3 5 14 9 25 9 11 0 18 4
14 10 -7 11 -65 9 -65 -3 0 -5 -9 -5 -20 -2 -11 4 -20 2 -20 -4 0 -6 -4 -11
-10 -11 -5 0 -10 6 -10 13 0 9 -12 11 -42 8 -38 -4 -40 -5 -18 -12 l25 -7 -27
-1 c-14 -1 -28 5 -30 12 -4 9 -184 13 -849 14 -853 3 -916 6 -969 41 -14 9
-34 15 -45 14 -11 -1 -14 1 -7 4 17 8 15 24 -2 24 -18 0 -86 136 -86 171 0 21
11 30 75 59 44 21 75 41 75 50 0 9 3 11 8 4 5 -7 14 -7 29 1 13 7 20 15 16 18
-3 4 1 7 11 7 20 0 77 40 71 50 -3 4 3 7 13 6 10 0 16 6 16 16 -1 10 2 15 8
12 5 -3 33 17 63 45 30 28 58 51 63 51 4 0 21 -13 37 -30 16 -16 38 -30 49
-30 16 0 18 -2 7 -9 -10 -7 -8 -9 10 -9 13 0 62 -14 109 -31 57 -21 105 -32
150 -33 l65 -2 -85 -6 -85 -6 65 -2 c58 -2 66 -4 67 -22 1 -12 -5 -20 -15 -21
-9 -1 10 -8 43 -15 l60 -13 -47 2 c-25 1 -44 -2 -41 -6 6 -9 199 -2 225 8 10
4 16 10 14 14 -3 4 13 6 35 4 26 -2 46 2 55 12 9 8 24 15 35 15 11 0 19 7 19
17 0 9 3 13 7 10 3 -4 12 1 19 11 7 9 18 17 26 18 7 0 21 2 31 2 9 1 17 10 17
20 0 21 33 56 43 46 8 -8 76 66 77 84 0 6 4 12 9 12 9 0 24 38 22 53 -1 5 3 6
8 3 5 -4 14 9 20 27 6 18 19 43 29 55 14 18 18 19 21 5 1 -9 15 -28 29 -42z
m-3097 -106 c22 -14 43 -24 48 -21 4 3 14 -4 21 -15 8 -10 20 -19 26 -19 7 0
14 -4 16 -8 4 -12 195 -130 271 -169 90 -46 290 -108 457 -143 163 -34 232
-51 332 -81 72 -22 91 -39 108 -99 8 -28 7 -31 -8 -25 -9 4 -35 11 -57 15 -22
4 -80 15 -130 25 -61 11 -145 17 -260 18 -190 1 -246 -7 -506 -73 -219 -56
-310 -55 -429 5 -151 77 -258 272 -205 376 10 19 33 53 51 76 39 47 187 163
210 163 8 0 32 -11 55 -25z m2448 -184 c12 -8 9 -11 -11 -16 -14 -4 -37 -5
-49 -2 -16 3 -10 5 16 6 32 2 36 4 20 11 -13 6 -15 9 -5 9 8 0 22 -3 29 -8z
m1244 -25 c-17 -37 -33 -37 -63 -2 -11 14 -9 16 11 17 15 1 8 5 -16 9 -37 7
-35 7 22 9 l63 1 -17 -34z m-103 -12 c0 -2 -7 -4 -15 -4 -8 0 -15 4 -15 10 0
5 7 7 15 4 8 -4 15 -8 15 -10z m538 -19 c-3 -3 -9 2 -12 12 -6 14 -5 15 5 6 7
-7 10 -15 7 -18z m-1625 5 c40 0 32 -6 -19 -13 -29 -5 -46 -2 -60 9 -18 15
-17 15 15 10 18 -3 47 -6 64 -6z m44 -26 c-3 -3 -12 -4 -19 -1 -8 3 -5 6 6 6
11 1 17 -2 13 -5z m1594 -7 c-7 -7 -14 -8 -21 -1 -6 6 -2 10 12 11 16 2 18 -1
9 -10z m59 -137 c0 -5 -4 -10 -8 -10 -5 0 -14 -10 -20 -22 -8 -17 -11 -19 -11
-6 -1 26 10 48 25 48 8 0 14 -4 14 -10z m1121 -71 c123 -16 268 -54 368 -98
93 -40 232 -118 271 -151 21 -18 21 -20 4 -20 -14 0 -11 -4 11 -16 20 -10 65
-17 130 -20 108 -5 117 -2 150 50 22 33 70 56 116 56 37 0 94 -51 105 -94 17
-68 -56 -176 -120 -176 -24 0 -41 -10 -71 -42 -38 -39 -134 -108 -153 -108 -4
0 -27 -9 -50 -20 -30 -15 -54 -19 -80 -15 -26 4 -31 3 -17 -4 17 -7 15 -9 -15
-14 -19 -4 -51 -9 -70 -14 -52 -10 -304 -6 -364 7 -66 14 -126 30 -151 40 -11
5 -33 11 -50 15 -28 6 -96 30 -310 110 -262 98 -541 173 -804 215 l-74 12 29
24 c29 24 221 134 234 134 3 0 24 8 46 19 98 47 243 87 384 106 119 16 370 18
481 4z m-5779 -84 c15 -16 28 -34 28 -38 0 -5 30 -37 66 -73 77 -75 160 -124
261 -154 64 -19 90 -21 210 -18 124 4 157 9 328 53 l190 49 175 0 c226 1 283
-12 525 -121 209 -95 212 -96 315 -121 67 -17 107 -19 345 -15 149 2 344 0
435 -4 182 -9 178 -5 60 -56 -189 -81 -408 -110 -547 -71 -32 9 -78 20 -103
24 -25 4 -72 15 -105 23 -33 8 -96 23 -140 32 -44 9 -98 20 -120 25 -104 24
-271 43 -380 43 -128 0 -195 -13 -305 -56 -240 -93 -361 -124 -515 -133 -123
-7 -279 14 -350 46 -22 10 -58 26 -80 36 -54 23 -163 101 -182 130 -8 13 -20
21 -26 17 -6 -4 -8 0 -4 11 4 9 3 15 -2 12 -15 -10 -65 61 -105 149 -26 56
-40 169 -30 234 6 37 8 41 17 25 6 -11 23 -32 39 -49z m4542 30 c-10 -8 -23
-15 -28 -15 -6 0 -1 7 10 15 10 8 23 15 28 15 6 0 1 -7 -10 -15z m-109 -55 c3
-5 -3 -10 -15 -10 -12 0 -18 5 -15 10 3 6 10 10 15 10 5 0 12 -4 15 -10z m-81
-15 c-4 -8 -10 -15 -15 -15 -5 0 -9 7 -9 15 0 8 7 15 15 15 9 0 12 -6 9 -15z
m261 -396 c127 -14 236 -36 335 -65 47 -14 101 -30 120 -35 19 -6 44 -14 55
-18 11 -5 52 -18 90 -31 39 -12 81 -28 94 -35 23 -12 23 -12 -30 -42 -91 -52
-532 -263 -548 -263 -5 0 -35 -11 -67 -25 -33 -14 -68 -29 -79 -34 -28 -12
-179 -69 -245 -93 -30 -12 -64 -24 -75 -29 -41 -16 -211 -69 -237 -73 -14 -2
-35 -9 -45 -15 -22 -11 -154 -31 -165 -24 -4 2 -43 -4 -85 -13 -61 -13 -130
-17 -313 -18 -252 0 -332 9 -435 49 -84 33 -107 36 -137 21 -32 -17 -167 -4
-180 16 -4 7 -8 9 -8 4 0 -5 -6 -3 -14 3 -11 9 -23 7 -52 -9 -21 -11 -52 -20
-67 -20 -35 0 -82 26 -97 55 -8 15 -28 24 -78 33 -36 7 -70 18 -75 25 -7 9
-10 9 -13 0 -3 -7 -12 -9 -20 -6 -7 3 -12 8 -9 12 2 4 -10 8 -28 8 -27 0 -76
15 -227 69 -13 4 -13 6 0 15 11 8 10 9 -8 4 -13 -4 -40 1 -65 12 -82 35 -283
136 -322 163 -22 15 -50 30 -62 34 -20 6 -52 36 -39 36 4 0 19 -7 34 -17 l27
-16 -30 29 c-16 16 -40 34 -55 41 -14 6 -19 12 -12 12 6 1 12 5 12 10 0 6 -17
8 -37 5 -36 -4 -36 -3 -9 5 107 36 350 11 701 -70 49 -12 96 -26 102 -31 8 -7
23 -6 44 1 113 39 190 -19 144 -109 -20 -38 -11 -40 9 -2 8 15 15 21 16 14 0
-9 7 -11 21 -7 16 5 19 4 14 -5 -5 -8 -4 -11 3 -6 6 3 27 -9 48 -28 48 -44
105 -72 189 -93 61 -15 73 -15 130 -1 49 11 62 12 58 2 -2 -7 -11 -15 -19 -18
-14 -6 -19 -52 -8 -81 10 -26 61 -47 99 -39 38 7 96 58 121 106 9 18 17 64 20
112 4 94 16 115 90 163 27 18 58 40 69 49 26 20 210 108 293 140 155 58 432
119 612 134 109 9 313 4 445 -11z m-1738 -755 c-3 -3 -12 -4 -19 -1 -8 3 -5 6
6 6 11 1 17 -2 13 -5z"/>
<path d="M5002 8690 c0 -14 2 -19 5 -12 2 6 2 18 0 25 -3 6 -5 1 -5 -13z"/>
<path d="M5001 8589 c0 -24 4 -62 9 -84 6 -29 7 -17 3 40 -6 88 -13 114 -12
44z"/>
<path d="M6755 7608 c-38 -20 -55 -51 -55 -101 0 -40 5 -53 29 -78 55 -55 150
-34 181 40 38 93 -67 188 -155 139z"/>
<path d="M7365 6495 c-30 -30 -32 -64 -4 -99 27 -34 71 -35 104 -1 32 31 33
74 2 103 -31 29 -72 28 -102 -3z"/>
<path d="M7961 6324 c-24 -31 -25 -37 -10 -67 16 -29 28 -37 61 -37 56 0 85
65 47 106 -30 32 -72 32 -98 -2z"/>
<path d="M3426 7945 c-39 -40 -26 -110 23 -122 33 -8 73 15 85 50 20 57 -65
114 -108 72z"/>
<path d="M2756 6809 c-111 -38 -176 -98 -176 -161 1 -37 14 -59 48 -77 28 -15
53 -7 115 35 78 54 162 57 228 8 67 -49 87 -130 49 -204 -25 -50 -25 -81 1
-114 26 -33 84 -36 121 -6 60 47 90 199 58 296 -24 74 -77 142 -140 183 -97
63 -199 76 -304 40z"/>
<path d="M1939 6657 c-138 -92 -41 -300 115 -246 109 38 117 203 13 252 -48
23 -88 21 -128 -6z"/>
<path d="M2255 6505 c-30 -30 -31 -54 -4 -89 41 -53 119 -21 119 48 0 63 -69
87 -115 41z"/>
<path d="M2569 6391 c-62 -63 -20 -171 66 -171 52 0 105 53 105 105 0 53 -44
95 -100 95 -33 0 -48 -6 -71 -29z"/>
<path d="M5111 8185 c0 -16 4 -39 8 -49 7 -18 8 -18 14 -3 3 9 2 17 -3 17 -6
0 -10 7 -10 15 0 8 5 15 10 15 6 0 10 -6 10 -12 0 -10 2 -10 9 0 6 11 17 11
45 4 31 -9 36 -8 36 7 0 14 -9 17 -52 15 -31 -1 -56 3 -60 10 -4 6 -7 -2 -7
-19z"/>
<path d="M5178 8155 c13 -9 26 -14 29 -11 8 8 3 12 -27 21 l-25 7 23 -17z"/>
<path d="M5157 8136 c-4 -9 3 -16 16 -20 28 -7 33 -1 14 19 -19 19 -23 19 -30
1z"/>
<path d="M6563 5550 c0 -25 2 -35 4 -22 2 12 2 32 0 45 -2 12 -4 2 -4 -23z"/>
<path d="M6770 4316 c0 -8 -3 -22 -7 -32 -4 -11 -3 -15 4 -11 13 8 23 57 12
57 -5 0 -9 -6 -9 -14z"/>
<path d="M5241 3394 c0 -11 3 -14 6 -6 3 7 2 16 -1 19 -3 4 -6 -2 -5 -13z"/>
<path d="M5390 3246 c0 -8 5 -18 10 -21 6 -3 10 3 10 14 0 12 -4 21 -10 21 -5
0 -10 -6 -10 -14z"/>
<path d="M5438 3233 c7 -3 16 -2 19 1 4 3 -2 6 -13 5 -11 0 -14 -3 -6 -6z"/>
<path d="M5417 3204 c-19 -19 30 -32 67 -18 20 7 11 24 -12 24 -15 0 -15 -2
-2 -10 11 -7 7 -10 -18 -10 -20 0 -31 4 -27 10 7 11 2 13 -8 4z"/>
<path d="M4377 3119 c-5 -20 17 -39 30 -25 4 3 -2 6 -13 6 -18 1 -18 1 -1 11
20 12 23 29 3 29 -7 0 -16 -9 -19 -21z"/>
<path d="M5650 3090 c8 -5 24 -10 34 -10 26 0 18 6 -19 14 -22 5 -26 4 -15 -4z"/>
<path d="M6155 3040 c-3 -5 1 -20 10 -32 l17 -23 -7 23 c-4 13 -2 22 5 22 6 0
8 5 5 10 -8 13 -22 13 -30 0z"/>
<path d="M6201 2994 c0 -11 3 -14 6 -6 3 7 2 16 -1 19 -3 4 -6 -2 -5 -13z"/>
<path d="M6220 2980 c0 -5 5 -10 10 -10 6 0 10 5 10 10 0 6 -4 10 -10 10 -5 0
-10 -4 -10 -10z"/>
<path d="M6180 2956 c0 -2 9 -6 20 -9 11 -3 20 -1 20 4 0 5 -9 9 -20 9 -11 0
-20 -2 -20 -4z"/>
<path d="M6129 2940 c-7 -5 -10 -13 -5 -17 5 -4 11 -2 13 5 4 10 8 10 19 1 8
-7 14 -7 14 -1 0 14 -25 22 -41 12z"/>
<path d="M6210 2909 c7 -11 14 -18 17 -15 8 8 -5 36 -17 36 -7 0 -7 -6 0 -21z"/>
<path d="M6020 2820 c0 -5 5 -10 10 -10 6 0 10 5 10 10 0 6 -4 10 -10 10 -5 0
-10 -4 -10 -10z"/>
<path d="M5927 2799 c7 -7 15 -10 18 -7 3 3 -2 9 -12 12 -14 6 -15 5 -6 -5z"/>
<path d="M5868 2769 c-27 -15 -22 -29 10 -29 19 0 23 3 13 9 -7 5 -10 14 -7
20 9 13 6 13 -16 0z"/>
<path d="M8126 2235 c-3 -8 -1 -15 4 -15 6 0 10 7 10 15 0 8 -2 15 -4 15 -2 0
-6 -7 -10 -15z"/>
<path d="M8038 2203 c7 -3 16 -2 19 1 4 3 -2 6 -13 5 -11 0 -14 -3 -6 -6z"/>
<path d="M5595 1610 c27 -12 43 -12 25 0 -8 5 -22 9 -30 9 -10 0 -8 -3 5 -9z"/>
<path d="M5498 1583 c7 -3 16 -2 19 1 4 3 -2 6 -13 5 -11 0 -14 -3 -6 -6z"/>
<path d="M7384 8499 c-19 -5 -42 -25 -59 -49 -37 -53 -31 -101 20 -147 40 -38
86 -43 141 -17 55 26 81 103 54 154 -25 47 -100 76 -156 59z"/>
<path d="M8964 7009 c-29 -15 -54 -61 -54 -102 0 -43 31 -84 73 -95 45 -12 74
-4 107 30 84 84 -18 219 -126 167z"/>
<path d="M1711 3824 c0 -11 3 -14 6 -6 3 7 2 16 -1 19 -3 4 -6 -2 -5 -13z"/>
<path d="M7820 3285 c-44 -47 -22 -115 41 -130 19 -5 33 0 54 18 38 33 39 81
1 114 -35 30 -67 29 -96 -2z"/>
</g>
</svg>
